<?xml version="1.0" encoding="iso-8859-1"?>
<!-- Generator: Adobe Illustrator 18.1.1, SVG Export Plug-In . SVG Version: 6.00 Build 0)  -->
<svg version="1.1" id="Capa_1" xmlns="http://www.w3.org/2000/svg" xmlns:xlink="http://www.w3.org/1999/xlink" x="0px" y="0px"
	 viewBox="0 0 260.156 260.156" style="enable-background:new 0 0 260.156 260.156;" xml:space="preserve">
<g>
	<path style="fill:#010002;" d="M0.011,113.769v32.618c0,12.015,9.741,21.756,21.756,21.756h70.24V238.4
		c0,12.015,9.741,21.756,21.756,21.756h32.634c12.015,0,21.756-9.741,21.756-21.756v-70.251h70.235
		c12.015,0,21.756-9.741,21.756-21.756v-32.618c0-12.015-9.741-21.756-21.756-21.756h-70.235V21.756
		C168.154,9.741,158.413,0,146.398,0h-32.634c-12.015,0-21.756,9.741-21.756,21.756v70.256h-70.24
		C9.752,92.013,0.011,101.754,0.011,113.769z"/>
</g>
<g>
</g>
<g>
</g>
<g>
</g>
<g>
</g>
<g>
</g>
<g>
</g>
<g>
</g>
<g>
</g>
<g>
</g>
<g>
</g>
<g>
</g>
<g>
</g>
<g>
</g>
<g>
</g>
<g>
</g>
</svg>
