<svg id="Capa_1" enable-background="new 0 0 512 512" height="512" viewBox="0 0 512 512" width="512" xmlns="http://www.w3.org/2000/svg"><g><path d="m511.999 95.156c0-10.597-4.515-20.742-12.386-27.834-7.886-7.105-18.467-10.547-29.04-9.443-142.379 14.867-286.767 14.867-429.147 0-10.572-1.104-21.154 2.338-29.04 9.443-7.871 7.092-12.386 17.237-12.386 27.834l.001 262.9c0 10.597 4.515 20.742 12.386 27.834 7.886 7.105 18.472 10.547 29.04 9.443 59.275-6.189 118.898-9.792 178.579-10.829l-8.976 31.413c-3.624 12.688-17.834 23.406-31.029 23.406h-56.5c-4.143 0-7.5 3.357-7.5 7.5s3.357 7.5 7.5 7.5h265c4.143 0 7.5-3.357 7.5-7.5s-3.357-7.5-7.5-7.5h-56.501c-13.195 0-27.405-10.719-31.03-23.406l-8.975-31.413c59.681 1.036 119.304 4.639 178.579 10.829 1.299.136 2.598.203 3.892.203 9.237 0 18.231-3.414 25.148-9.646 7.871-7.092 12.386-17.237 12.386-27.835zm-225.452 324.883c2.059 7.205 6.149 13.824 11.512 19.285h-84.119c5.363-5.461 9.453-12.081 11.511-19.285l10.213-35.745c13.556-.133 27.113-.133 40.668 0zm203.027-45.292c-4.806 4.328-11 6.339-17.441 5.669-71.708-7.489-143.92-11.233-216.133-11.233-72.212 0-144.425 3.744-216.132 11.233-6.445.674-12.638-1.341-17.441-5.669-4.789-4.314-7.426-10.242-7.426-16.69l-.001-262.901c0-6.448 2.638-12.375 7.426-16.689 4.805-4.33 11.003-6.343 17.441-5.67 143.414 14.979 288.849 14.979 432.265 0 6.444-.676 12.638 1.341 17.441 5.669 4.789 4.314 7.426 10.242 7.426 16.69l.001 262.9c0 6.448-2.638 12.375-7.426 16.691z"/><path d="m479.52 89.598c-1.577-1.423-3.681-2.104-5.799-1.889-72.174 7.527-145.426 11.344-217.721 11.344-72.296 0-145.548-3.816-217.722-11.344-2.119-.213-4.221.466-5.799 1.889-1.578 1.421-2.479 3.447-2.479 5.571v116.437c0 4.143 3.357 7.5 7.5 7.5s7.5-3.357 7.5-7.5v-108.131c70.006 7.02 140.951 10.577 211 10.577s140.993-3.558 210.999-10.577l.001 246.262c-70.007-7.02-140.952-10.577-211-10.577-70.049 0-140.993 3.558-210.999 10.577l-.001-108.131c0-4.143-3.358-7.5-7.5-7.5-4.143 0-7.5 3.358-7.5 7.5l.001 116.438c0 2.125.901 4.149 2.479 5.571 1.577 1.423 3.676 2.101 5.799 1.889 72.174-7.528 145.426-11.344 217.721-11.344s145.547 3.816 217.722 11.344c.261.026.52.04.778.04 1.846 0 3.637-.681 5.021-1.929 1.578-1.422 2.479-3.447 2.479-5.571l-.001-262.875c0-2.124-.901-4.15-2.479-5.571z"/></g></svg>